<svg xmlns="http://www.w3.org/2000/svg" x="0px" y="0px" width="32" height="12" viewBox="0 10 32 12">
<path d="M 5.6875 11.28125 C 3.085938 11.28125 1 14.707031 1 17.5625 C 1 18.4375 1.390625 20.71875 3.4375 20.71875 C 6.039063 20.71875 7.96875 17.191406 7.96875 14.53125 C 7.96875 11.984375 6.429688 11.28125 5.6875 11.28125 Z M 12.96875 11.28125 C 10.367188 11.28125 8.25 14.707031 8.25 17.5625 C 8.25 18.4375 8.671875 20.71875 10.71875 20.71875 C 13.320313 20.71875 15.21875 17.191406 15.21875 14.53125 C 15.21875 11.984375 13.710938 11.28125 12.96875 11.28125 Z M 16.4375 11.375 C 16.4375 11.375 15.46875 13.199219 15.46875 13.90625 L 16.78125 13.90625 C 16.878906 13.242188 17.375 12.5625 17.375 12.5625 L 20.3125 12.5625 C 19.179688 15.445313 16.648438 16.355469 15.25 20.53125 L 17.65625 20.53125 C 18.28125 17.273438 22.710938 14.789063 22.6875 11.375 Z M 23.3125 11.40625 C 23.3125 11.40625 23.214844 12.359375 22.90625 13.125 L 27.4375 13.125 C 27.535156 12.855469 27.808594 12.6875 28.09375 12.6875 L 30.34375 12.6875 C 31.007813 12.152344 31 11.40625 31 11.40625 Z M 5.8125 12.15625 C 5.882813 12.15625 6.1875 12.292969 6.1875 13.09375 C 6.1875 15.832031 3.804688 19.75 2.96875 19.75 C 2.667969 19.75 2.59375 19.265625 2.59375 18.90625 C 2.59375 17.496094 4.671875 12.15625 5.8125 12.15625 Z M 13.0625 12.15625 C 13.132813 12.15625 13.4375 12.292969 13.4375 13.09375 C 13.4375 15.832031 11.085938 19.75 10.25 19.75 C 9.949219 19.75 9.84375 19.265625 9.84375 18.90625 C 9.84375 17.496094 11.921875 12.15625 13.0625 12.15625 Z M 22.65625 13.59375 C 22.65625 13.59375 22.40625 13.917969 22.40625 14.46875 C 22.40625 14.945313 23.0625 15.625 23.0625 15.625 C 23.0625 15.625 22.96875 15.203125 22.96875 14.90625 C 22.96875 14.609375 23.15625 14.4375 23.15625 14.4375 L 24.625 14.4375 C 24.625 14.4375 24.101563 15.566406 23.875 15.875 C 23.652344 16.183594 23.0625 16.25 23.0625 16.25 L 20.875 16.25 L 20.46875 16.75 C 20.46875 16.75 22.730469 16.75 23.375 16.75 C 24.019531 16.75 24.410156 16.230469 24.59375 15.90625 C 24.777344 15.582031 25.316406 14.703125 25.46875 14.4375 C 25.621094 14.171875 25.847656 14.125 26.28125 14.125 C 26.714844 14.125 27.03125 13.59375 27.03125 13.59375 Z"></path>
</svg>
